# xmcd
#
# Track frame offsets: 
#        150
#        17596
#        33161
#        59393
#        77074
#        92475
#        105397
#        130465
#        147051
#        165584
#        181559
#        200570
#        220638
#        239116
#
# Disc length: 3410 seconds
#
# Revision: 0
# Processed by: cddbd v1.5.2PL0 Copyright (c) Steve Scherf et al.
# Submitted via: ExactAudioCopy v0.99pb5
#
DISCID=b10d500e
DTITLE=The Pumps - Cover To Cover
DYEAR=2010
DGENRE=Blues
TTITLE0=Rock This House
TTITLE1=Moving On
TTITLE2=Forty Days And Forty Nights
TTITLE3=Good Time Roll Creole
TTITLE4=Blues Makes Me Feel So Good
TTITLE5=The One After 909
TTITLE6=Temptation
TTITLE7=Walking By Myself
TTITLE8=She's Hot
TTITLE9=Teat Her Right
TTITLE10=I Can Tell
TTITLE11=Fever
TTITLE12=Boom Boom
TTITLE13=Blues Attack
EXTD=
EXTT0=
EXTT1=
EXTT2=
EXTT3=
EXTT4=
EXTT5=
EXTT6=
EXTT7=
EXTT8=
EXTT9=
EXTT10=
EXTT11=
EXTT12=
EXTT13=
PLAYORDER=
